<svg width="26" height="24" viewBox="0 0 26 24" fill="none" xmlns="http://www.w3.org/2000/svg">
<path d="M20.3986 14.9C20.0748 15.2137 19.9261 15.6675 19.9998 16.1125L21.1111 22.2625C21.2048 22.7837 20.9848 23.3112 20.5486 23.6125C20.1211 23.925 19.5523 23.9625 19.0861 23.7125L13.5498 20.825C13.3573 20.7225 13.1436 20.6675 12.9248 20.6612H12.5861C12.4686 20.6787 12.3536 20.7162 12.2486 20.7737L6.71109 23.675C6.43735 23.8125 6.12734 23.8612 5.8236 23.8125C5.08359 23.6725 4.58984 22.9675 4.71109 22.2237L5.8236 16.0737C5.89734 15.625 5.74859 15.1687 5.42484 14.85L0.911095 10.475C0.533595 10.1087 0.402345 9.55875 0.574845 9.0625C0.742345 8.5675 1.16984 8.20625 1.68609 8.125L7.89859 7.22375C8.37109 7.175 8.78609 6.8875 8.99859 6.4625L11.7361 0.85C11.8011 0.725 11.8848 0.61 11.9861 0.5125L12.0986 0.425C12.1573 0.36 12.2248 0.30625 12.2998 0.2625L12.4361 0.2125L12.6486 0.125H13.1748C13.6448 0.17375 14.0586 0.455 14.2748 0.875L17.0486 6.4625C17.2486 6.87125 17.6373 7.155 18.0861 7.22375L24.2986 8.125C24.8236 8.2 25.2623 8.5625 25.4361 9.0625C25.5998 9.56375 25.4586 10.1137 25.0736 10.475L20.3986 14.9Z" fill="#130F26"/>
</svg>
