<svg width="1089" height="976" viewBox="0 0 1089 976" fill="none" xmlns="http://www.w3.org/2000/svg">
<path d="M284.72 2C194.45 50.4006 119.938 123.653 70.0052 213.084C20.0723 302.516 -3.19044 404.382 2.97078 506.624C9.132 608.866 44.4592 707.201 104.77 789.99C165.081 872.778 247.851 936.552 343.28 973.762" stroke="#121721" stroke-width="4"/>
<path d="M803.56 2C893.83 50.4006 968.342 123.653 1018.28 213.084C1068.21 302.516 1091.47 404.382 1085.31 506.624C1079.15 608.866 1043.82 707.201 983.51 789.99C923.199 872.778 840.43 936.552 745 973.762" stroke="#121721" stroke-width="4"/>
<path d="M444.133 44.2637C355.901 63.4659 275.905 109.833 215.386 176.848C154.867 243.863 116.869 328.157 106.731 417.884C96.5942 507.61 114.827 598.257 158.869 677.086C202.91 755.914 270.545 818.961 352.269 857.364" stroke="#121721" stroke-width="4"/>
<path d="M636.001 44.2637C724.232 63.4659 804.229 109.833 864.748 176.848C925.267 243.863 963.265 328.157 973.402 417.884C983.54 507.61 965.306 598.257 921.265 677.086C877.224 755.914 809.588 818.961 727.865 857.364" stroke="#121721" stroke-width="4"/>
<path d="M417.978 188.414C368.677 210.452 326.265 245.431 295.246 289.636C264.227 333.841 245.759 385.622 241.803 439.479C237.848 493.336 248.551 547.259 272.778 595.522C297.005 643.785 333.851 684.586 379.402 713.591" stroke="#121721" stroke-width="4"/>
<path d="M694.001 188.414C743.301 210.452 785.713 245.431 816.732 289.636C847.751 333.841 866.219 385.622 870.175 439.479C874.131 493.336 863.427 547.259 839.2 595.522C814.973 643.785 778.128 684.586 732.576 713.591" stroke="#121721" stroke-width="4"/>
</svg>
