<svg width="30" height="30" viewBox="0 0 30 30" fill="none" xmlns="http://www.w3.org/2000/svg">
<path d="M27.251 0H2.74902C1.25 0 0 1.25 0 2.74902V27.251C0 28.75 1.25 30 2.74902 30H27.251C28.75 30 30 28.75 30 27.251V2.74902C30 1.25 28.75 0 27.251 0ZM8.75 25H3.75V11.25H8.75V25ZM6.25 9.62402C4.75098 9.62402 3.75 8.62305 3.75 7.37305C3.75 6.00098 4.75098 5 6.25 5C7.74902 5 8.75 6.00098 8.75 7.25098C8.75 8.62305 7.74902 9.62402 6.25 9.62402ZM26.25 25H21.25V17.5C21.25 15.498 19.873 15 19.502 15C19.126 15 17.5 15.249 17.5 17.5C17.5 17.749 17.5 25 17.5 25H12.5V11.25H17.5V13.252C18.252 12.124 19.502 11.25 21.875 11.25C24.248 11.25 26.25 13.125 26.25 17.5V25Z" fill="white"/>
</svg>
