<svg width="36" height="28" viewBox="0 0 36 28" fill="none" xmlns="http://www.w3.org/2000/svg">
<path d="M35.5 3.24219C34.1914 3.80859 32.873 4.22852 31.418 4.36523C32.873 3.52539 34.0449 2.10938 34.6211 0.566407C33.166 1.40625 31.7109 1.97266 30.1094 2.25586C28.6445 0.84961 26.75 0 24.709 0C20.7734 0 17.5605 3.10547 17.5605 6.91406C17.5605 7.4707 17.5605 8.03711 17.707 8.4668C10.1875 8.4668 5.03125 4.22852 1.53516 0C0.802735 0.986328 0.509765 2.25586 0.509765 3.52539C0.509765 5.91797 1.82812 8.03711 3.72266 9.30664C2.55078 9.16992 1.38867 8.88672 0.509765 8.4668C0.509765 8.4668 0.509765 8.4668 0.509765 8.60351C0.509765 11.9922 2.99023 14.8047 6.20312 15.3711C5.61719 15.5078 5.03125 15.6543 4.29883 15.6543C3.86914 15.6543 3.42969 15.6543 2.99023 15.5176C3.86914 18.3398 7.94141 21.582 11.1445 21.582C8.66406 23.4082 6.35938 25 1.75 25C1.16406 25 1.63281 25 0.5 25C3.70312 26.9727 7.50195 27.5 11.4375 27.5C24.709 27.5 31.8574 16.9238 31.8574 7.75391C31.8574 7.4707 31.8574 7.19727 31.8574 6.91406C33.3125 5.91797 34.4844 4.6582 35.5 3.24219Z" fill="white"/>
</svg>
