<svg width="40" height="40" viewBox="0 0 40 40" fill="none" xmlns="http://www.w3.org/2000/svg">
<path d="M35.9997 28.25C35.6663 30 34.2497 31.3333 32.4997 31.5833C29.7497 32 25.1663 32.5 19.9997 32.5C14.9163 32.5 10.333 32 7.49967 31.5833C5.74967 31.3333 4.33301 30 3.99967 28.25C3.66634 26.3333 3.33301 23.5 3.33301 20C3.33301 16.5 3.66634 13.6667 3.99967 11.75C4.33301 10 5.74967 8.66667 7.49967 8.41667C10.2497 8 14.833 7.5 19.9997 7.5C25.1663 7.5 29.6663 8 32.4997 8.41667C34.2497 8.66667 35.6663 10 35.9997 11.75C36.333 13.6667 36.7497 16.5 36.7497 20C36.6663 23.5 36.333 26.3333 35.9997 28.25Z" fill="white"/>
<path d="M16.667 25.8327V14.166L26.667 19.9993L16.667 25.8327Z" fill="#040914"/>
</svg>
