<svg width="119" height="46" viewBox="0 0 119 46" fill="none" xmlns="http://www.w3.org/2000/svg">
<path d="M79.0053 16.13V30.735C79.0053 31.5783 78.5837 32 77.7403 32H75.8083C75.425 32 75.1337 31.9157 74.9343 31.747C74.735 31.563 74.551 31.2947 74.3823 30.942L69.9893 22.616C69.8053 22.2633 69.6213 21.8723 69.4373 21.443C69.2687 21.0137 69.123 20.5997 69.0003 20.201H68.7473C68.7933 20.615 68.8317 21.0367 68.8623 21.466C68.893 21.88 68.9083 22.294 68.9083 22.708V32H65.5733V17.395C65.5733 16.5517 66.0027 16.13 66.8613 16.13H68.7703C69.1383 16.13 69.4143 16.222 69.5983 16.406C69.7977 16.5747 69.9893 16.8353 70.1733 17.188L74.4283 25.261C74.6123 25.6137 74.804 26.0047 75.0033 26.434C75.2027 26.8633 75.3943 27.308 75.5783 27.768H75.8543C75.8083 27.308 75.77 26.8633 75.7393 26.434C75.724 25.9893 75.7163 25.5523 75.7163 25.123L75.6933 16.13H79.0053ZM85.553 16.061C86.3656 16.061 87.1936 16.0687 88.037 16.084C88.8956 16.084 89.7313 16.107 90.544 16.153C91.372 16.1837 92.1386 16.2373 92.844 16.314L92.66 18.844H86.91C86.496 18.844 86.1816 18.9437 85.967 19.143C85.7523 19.3423 85.645 19.6337 85.645 20.017V32H82.126V19.304C82.126 18.3227 82.4403 17.5407 83.069 16.958C83.6976 16.36 84.5256 16.061 85.553 16.061ZM82.54 22.777H91.809V25.261H82.54V22.777ZM102.059 16.13V32H98.5397V16.13H102.059ZM106.843 16.13V18.89H93.7787V16.13H106.843ZM110.682 20.339C111.234 20.339 111.832 20.362 112.476 20.408C113.12 20.4387 113.748 20.4847 114.362 20.546C114.975 20.6073 115.519 20.684 115.995 20.776L115.765 22.892C115.029 22.8767 114.285 22.869 113.534 22.869C112.798 22.8537 112.077 22.846 111.372 22.846C110.774 22.8307 110.314 22.8383 109.992 22.869C109.67 22.8997 109.44 22.9763 109.302 23.099C109.179 23.2063 109.118 23.4057 109.118 23.697C109.118 24.0343 109.233 24.2643 109.463 24.387C109.693 24.4943 110.076 24.617 110.613 24.755L113.58 25.468C114.53 25.7133 115.236 26.0813 115.696 26.572C116.156 27.0473 116.386 27.768 116.386 28.734C116.386 29.6847 116.209 30.413 115.857 30.919C115.504 31.425 114.944 31.7777 114.178 31.977C113.411 32.161 112.422 32.253 111.211 32.253C110.735 32.253 110.03 32.23 109.095 32.184C108.159 32.138 107.132 32.023 106.013 31.839L106.243 29.723C106.519 29.7383 106.871 29.7537 107.301 29.769C107.73 29.769 108.198 29.769 108.704 29.769C109.21 29.769 109.716 29.769 110.222 29.769C111.004 29.769 111.602 29.7537 112.016 29.723C112.43 29.677 112.713 29.585 112.867 29.447C113.02 29.309 113.097 29.102 113.097 28.826C113.097 28.4887 112.966 28.2587 112.706 28.136C112.445 28.0133 112.031 27.883 111.464 27.745L108.589 27.032C107.868 26.8327 107.308 26.5797 106.91 26.273C106.511 25.9663 106.227 25.5907 106.059 25.146C105.905 24.7013 105.829 24.1723 105.829 23.559C105.829 22.777 105.982 22.156 106.289 21.696C106.611 21.2207 107.124 20.8757 107.83 20.661C108.55 20.4463 109.501 20.339 110.682 20.339Z" fill="white"/>
<rect x="0.0136719" y="0.5" width="50" height="45" rx="4" fill="#D3F85A"/>
<path d="M25.0138 7.5V18.6724L15.0137 22.7883L25.0138 7.5Z" fill="#212A4D"/>
<path d="M25.0139 18.6719V28.3854L15.0137 22.7877L25.0139 18.6719Z" fill="#212A4D"/>
<path d="M25.0139 30.3716V37.8617L15.0137 24.9297L25.0139 30.3716Z" fill="#212A4D"/>
<path d="M25.0156 7.5V18.6724L35.0157 22.7883L25.0156 7.5Z" fill="#212A4D"/>
<path d="M25.0156 18.6719V28.3854L35.0156 22.7877L25.0156 18.6719Z" fill="#212A4D"/>
<path d="M25.0156 30.3716V37.8617L35.0156 24.9297L25.0156 30.3716Z" fill="#212A4D"/>
</svg>
